<svg width="371" height="311" viewBox="0 0 371 311" fill="none" xmlns="http://www.w3.org/2000/svg">
<rect width="371" height="311" fill="#E5E5E5"/>
<g id="Template 3-main-mobile" clip-path="url(#clip0_1_468)">
<rect width="375" height="6715" transform="translate(0 -3936)" fill="white"/>
<g id="illustration- about me- mobile">
<g id="Frame" clip-path="url(#clip1_1_468)">
<g id="illustration 2-about me mobile">
<g id="Group">
<path id="Vector" d="M-6.18998 305.3L76.1277 304.26L44.229 295.682L47.8244 288.249L68.2262 285.512L63.0003 284.328L48.9532 283.715L-6.18998 305.3Z" fill="#172B4D"/>
<g id="Group_2">
<g id="Group_3">
<path id="Vector_2" d="M39.3374 267.337L36.829 267.377L15.9673 259.78L39.5465 272.851L43.3927 269.746L39.3374 267.337Z" fill="#36B37E"/>
<path id="Vector_3" d="M39.3377 267.336L79.9323 260.065L59.6559 279.303L39.3377 267.336Z" fill="#172B4D"/>
<path id="Vector_4" d="M15.9673 259.78L56.4783 282.286L47.3644 283.919L25.0395 285.512L15.9673 259.78Z" fill="white" stroke="#36B37E" stroke-width="0.633632" stroke-miterlimit="10" stroke-linejoin="round"/>
<path id="Vector_5" d="M56.4784 282.285L79.9321 260.065L63.0003 284.327L56.4784 282.285Z" fill="white" stroke="#36B37E" stroke-width="0.633632" stroke-miterlimit="10" stroke-linejoin="round"/>
<path id="Vector_6" d="M39.5467 272.85L50.0403 264.396L51.1273 265.253L47.8245 277.466L39.5467 272.85Z" fill="white" stroke="#36B37E" stroke-width="0.633632" stroke-miterlimit="10" stroke-linejoin="round"/>
<path id="Vector_7" d="M51.1271 265.253L60.6173 278.405L56.4784 282.285L47.8244 277.465L51.1271 265.253Z" fill="white" stroke="#36B37E" stroke-width="0.633632" stroke-miterlimit="10" stroke-linejoin="round"/>
<path id="Vector_8" d="M63.0004 284.327L47.3646 283.919L56.4785 282.285L63.0004 284.327Z" fill="white" stroke="#36B37E" stroke-width="0.633632" stroke-miterlimit="10" stroke-linejoin="round"/>
</g>
<g id="Group_4">
<path id="Vector_9" d="M8.98563 278.038L5.64107 278.609L-23.791 272.81L10.4907 285.308L14.964 280.366L8.98563 278.038Z" fill="white" stroke="#36B37E" stroke-width="0.633632" stroke-miterlimit="10" stroke-linejoin="round"/>
<path id="Vector_10" d="M8.98568 278.038L61.4953 260.066L38.6268 289.679L8.98568 278.038Z" fill="#C5E9DA" stroke="#36B37E" stroke-width="0.633632" stroke-miterlimit="10"/>
<path id="Vector_11" d="M-23.791 272.81L35.115 294.253L23.2836 298.337L-6.1485 304.995L-23.791 272.81Z" fill="white" stroke="#36B37E" stroke-width="0.633632" stroke-miterlimit="10" stroke-linejoin="round"/>
<path id="Vector_12" d="M35.1149 294.253L61.4951 260.066L44.2289 295.683L35.1149 294.253Z" fill="white" stroke="#36B37E" stroke-width="0.633632" stroke-miterlimit="10" stroke-linejoin="round"/>
<path id="Vector_13" d="M10.4906 285.308L22.6564 271.952L24.2869 272.81L22.531 289.679L10.4906 285.308Z" fill="#36B37E"/>
<path id="Vector_14" d="M24.2869 272.81L39.7137 288.29L35.1149 294.253L22.531 289.678L24.2869 272.81Z" fill="white" stroke="#36B37E" stroke-width="0.633632" stroke-miterlimit="10" stroke-linejoin="round"/>
<path id="Vector_15" d="M44.2289 295.682L23.2836 298.337L35.1149 294.253L44.2289 295.682Z" fill="white" stroke="#36B37E" stroke-width="0.633632" stroke-miterlimit="10" stroke-linejoin="round"/>
</g>
</g>
</g>
<g id="Mask Group">
<mask id="mask0_1_468" style="mask-type:alpha" maskUnits="userSpaceOnUse" x="-25" y="272" width="61" height="34">
<path id="Vector_16" d="M-23.864 272.962L35.0043 294.167L23.3466 298.092L-6.08549 304.75L-23.864 272.962Z" fill="white" stroke="#36B37E" stroke-width="0.633632" stroke-miterlimit="10" stroke-linejoin="round"/>
</mask>
<g mask="url(#mask0_1_468)">
<g id="Group_5">
<g id="Group_6">
<path id="Vector_17" d="M11.5777 295.111L5.18121 295.315L2.21291 290.291L-3.93271 290.536L-1.04803 295.519L-7.11004 295.683L-4.30898 300.706L1.87846 300.584L8.19131 300.42L11.285 305.689L17.8905 305.608L21.1515 310.999H28.0078L24.6633 305.526L21.3605 300.175L14.6714 300.298L11.5777 295.111Z" fill="#C5E9DA"/>
<path id="Vector_18" d="M8.48406 290.006L5.47396 285.022L-0.713474 285.349L2.21301 290.291L8.48406 290.006Z" fill="#C5E9DA"/>
<path id="Vector_19" d="M18.0997 294.907L14.9642 289.72L8.48407 290.006L11.5778 295.111L18.0997 294.907Z" fill="#36B37E"/>
<path id="Vector_20" d="M21.5696 289.475L18.3505 284.328L11.8286 284.696L14.9641 289.72L21.5696 289.475Z" fill="#172B4D"/>
<path id="Vector_21" d="M24.8306 294.662L18.0997 294.907L21.3606 300.176L28.1752 300.012L35.1988 299.849L31.7288 294.457L28.3424 289.188L21.5697 289.474L24.8306 294.662Z" fill="#36B37E"/>
<path id="Vector_22" d="M5.47388 285.022L11.8285 284.695L8.77664 279.753L5.80834 274.893L-0.337289 275.342L-6.35749 275.75L-3.55643 280.488L2.54739 280.121L5.47388 285.022Z" fill="#36B37E"/>
<path id="Vector_23" d="M21.7786 278.937L15.215 279.345L18.3505 284.328L25.0396 284.001L21.7786 278.937Z" fill="#36B37E"/>
<path id="Vector_24" d="M35.3241 288.861L31.8541 283.633L25.0396 284L28.3424 289.188L35.3241 288.861Z" fill="#36B37E"/>
</g>
</g>
</g>
</g>
</g>
</g>
</g>
</g>
<g id="Mask Group_2">
<mask id="mask1_1_468" style="mask-type:alpha" maskUnits="userSpaceOnUse" x="307" y="-6" width="68" height="127">
<rect id="Rectangle 43" x="307" y="-6" width="68" height="127" fill="#C4C4C4"/>
</mask>
<g mask="url(#mask1_1_468)">
<g id="illustration 1- about me-mobile">
<path id="Vector_25" d="M378.803 100.077L422.808 115.042H359.67L351.575 114.159L347.651 111.706L361.044 100.077H378.803Z" fill="#172B4D"/>
<path id="Vector_26" d="M373.014 72.601V70.2459C373.014 70.2459 367.863 60.0403 367.127 59.9422C366.391 59.8441 306.54 34.9189 306.54 34.9189L329.352 79.3229L338.379 88.9397L373.014 72.601Z" fill="white" stroke="#36B37E" stroke-width="0.598795" stroke-miterlimit="10"/>
<g id="Mask Group_3">
<mask id="mask2_1_468" style="mask-type:alpha" maskUnits="userSpaceOnUse" x="306" y="34" width="68" height="56">
<path id="Vector_27" d="M373.197 72.8676V70.5125C373.197 70.5125 368.046 60.3069 367.31 60.2088C366.574 60.1107 306.723 35.1855 306.723 35.1855L329.535 79.5895L338.562 89.2063L373.197 72.8676Z" fill="white" stroke="#36B37E" stroke-width="0.598795" stroke-miterlimit="10"/>
</mask>
<g mask="url(#mask2_1_468)">
<g id="Group_7">
<g id="Group_8">
<path id="Vector_28" d="M348.043 61.0712L340.537 61.3165L337.103 55.2324L329.891 55.5759L333.276 61.5128L326.114 61.7581L329.45 67.7931L336.661 67.6459L344.118 67.4496L347.749 73.73L355.451 73.6809L359.277 80.1575H367.372L363.398 73.5828L359.523 67.1062L351.722 67.3025L348.043 61.0712Z" fill="#C5E9DA"/>
<path id="Vector_29" d="M344.462 54.9371L340.929 48.9512L333.669 49.3437L337.103 55.2315L344.462 54.9371Z" fill="#36B37E"/>
<path id="Vector_30" d="M355.745 60.7769L352.017 54.5947L344.462 54.9382L348.043 61.0713L355.745 60.7769Z" fill="#36B37E"/>
<path id="Vector_31" d="M359.768 54.2503L355.99 48.1172L348.386 48.5097L352.017 54.5938L359.768 54.2503Z" fill="#36B37E"/>
<path id="Vector_32" d="M363.643 60.531L355.745 60.7764L359.523 67.1058L367.568 66.9586L375.81 66.7623L371.738 60.2857L367.764 53.9072L359.768 54.2507L363.643 60.531Z" fill="#36B37E"/>
<path id="Vector_33" d="M322.876 55.8703L329.891 55.5759L326.604 49.6881L333.669 49.3446L330.333 43.5059L323.367 43.9474L316.547 44.389L319.687 50.0806L312.917 50.424L306.343 50.7675L309.336 56.4591L316.008 56.1647L319.148 62.0034L326.114 61.7581L322.876 55.8703Z" fill="#172B4D"/>
<path id="Vector_34" d="M312.377 62.1992L315.468 68.087L322.385 67.9398L319.148 62.0029L312.377 62.1992Z" fill="#36B37E"/>
<path id="Vector_35" d="M306.932 39.2856L309.876 44.8299L316.547 44.3883L313.457 38.7949L306.932 39.2856Z" fill="#36B37E"/>
<path id="Vector_36" d="M340.929 48.9516L348.386 48.51L344.805 42.5731L341.322 36.7344L334.11 37.2741L327.046 37.8138L330.333 43.5054L337.495 43.0638L340.929 48.9516Z" fill="#36B37E"/>
<path id="Vector_37" d="M360.013 41.5918L352.311 42.0824L355.99 48.1175L363.84 47.7249L360.013 41.5918Z" fill="#36B37E"/>
<path id="Vector_38" d="M375.908 53.5635L371.885 47.2832L363.84 47.7248L367.764 53.907L375.908 53.5635Z" fill="#36B37E"/>
<path id="Vector_39" d="M322.385 67.9392L325.672 74.0233L332.835 73.9251L329.45 67.792L322.385 67.9392Z" fill="#36B37E"/>
</g>
</g>
</g>
</g>
<path id="Vector_40" d="M359.67 71.0303L332.197 76.9181L331.511 78.7335L337.643 87.1236L359.67 71.0303Z" fill="#172B4D"/>
<path id="Vector_41" d="M383.12 78.5377L377.576 73.8274L368.991 67.3018L347.258 76.0354L346.277 81.2853L351.575 88.7923L383.12 78.5377Z" fill="white" stroke="#36B37E" stroke-width="0.598795" stroke-miterlimit="10"/>
<path id="Vector_42" d="M371.984 82.1189L388.026 76.918L378.803 100.077L365.557 100.911L371.984 82.1189Z" fill="white" stroke="#36B37E" stroke-width="0.598795" stroke-miterlimit="10"/>
<path id="Vector_43" d="M354.764 87.6635L351.575 88.792L350.104 109.743L351.575 114.159L365.557 100.911L371.984 82.1191L354.764 87.6635Z" fill="white" stroke="#36B37E" stroke-width="0.598795" stroke-miterlimit="10"/>
<path id="Vector_44" d="M397.69 73.8271L425.408 88.792L354.764 87.6635L397.69 73.8271Z" fill="#C5E9DA" stroke="#36B37E" stroke-width="0.598795" stroke-miterlimit="10"/>
<path id="Vector_45" d="M351.575 88.7922V85.3576L329.352 54.79L326.408 59.4512L347.651 111.706L350.104 109.743L351.575 88.7922Z" fill="white" stroke="#36B37E" stroke-width="0.598795" stroke-miterlimit="10"/>
<path id="Vector_46" d="M329.352 54.7898L326.408 59.4509L316.499 68.6752L324.348 52.8271L329.352 54.7898Z" fill="white" stroke="#36B37E" stroke-width="0.598795" stroke-miterlimit="10"/>
<path id="Vector_47" d="M382.335 91.1477L354.764 87.6641L383.561 88.1547L382.335 91.1477Z" fill="#172B4D"/>
<path id="Vector_48" d="M357.757 86.731L348.141 78.7334L347.749 80.1072L351.575 85.3572V88.7918L357.757 86.731Z" fill="#172B4D"/>
<path id="Vector_49" d="M345.59 106.701L343.334 109.498L340.39 106.701L325.035 60.7759L326.409 59.4512L345.59 106.701Z" fill="#C5E9DA" stroke="#36B37E" stroke-width="0.598795" stroke-miterlimit="10"/>
</g>
</g>
</g>
<defs>
<clipPath id="clip0_1_468">
<rect width="375" height="6715" fill="white" transform="translate(0 -3936)"/>
</clipPath>
<clipPath id="clip1_1_468">
<rect width="104.141" height="51.4233" fill="white" transform="translate(-24 259.577)"/>
</clipPath>
</defs>
</svg>
