<svg width="375" height="390" viewBox="0 0 375 390" fill="none" xmlns="http://www.w3.org/2000/svg">
<rect width="375" height="390" fill="#E5E5E5"/>
<g clip-path="url(#clip0_1_468)">
<rect width="375" height="6715" transform="translate(0 -3943)" fill="white"/>
<g clip-path="url(#clip1_1_468)">
<path d="M-35.2046 382.247L65.5333 380.945L26.4966 370.205L30.8965 360.898L55.8637 357.472L49.4684 355.989L32.2779 355.222L-35.2046 382.247Z" fill="#172B4D"/>
<path d="M20.5105 334.716L17.4407 334.767L-8.08918 325.255L20.7663 341.619L25.4732 337.733L20.5105 334.716Z" fill="#36B37E"/>
<path d="M20.5107 334.715L70.1892 325.612L45.3755 349.699L20.5107 334.715Z" fill="#172B4D"/>
<path d="M-8.08918 325.255L41.4869 353.432L30.3336 355.478L3.01301 357.472L-8.08918 325.255Z" fill="white" stroke="#36B37E" stroke-width="0.633632" stroke-miterlimit="10" stroke-linejoin="round"/>
<path d="M41.4871 353.432L70.189 325.612L49.4684 355.989L41.4871 353.432Z" fill="white" stroke="#36B37E" stroke-width="0.633632" stroke-miterlimit="10" stroke-linejoin="round"/>
<path d="M20.7665 341.619L33.6083 331.033L34.9385 332.107L30.8967 347.398L20.7665 341.619Z" fill="white" stroke="#36B37E" stroke-width="0.633632" stroke-miterlimit="10" stroke-linejoin="round"/>
<path d="M34.9383 332.107L46.5521 348.574L41.4871 353.432L30.8965 347.398L34.9383 332.107Z" fill="white" stroke="#36B37E" stroke-width="0.633632" stroke-miterlimit="10" stroke-linejoin="round"/>
<path d="M49.4685 355.989L30.3339 355.477L41.4872 353.432L49.4685 355.989Z" fill="white" stroke="#36B37E" stroke-width="0.633632" stroke-miterlimit="10" stroke-linejoin="round"/>
<path d="M-16.6331 348.113L47.6265 325.612L19.6408 362.688L-16.6331 348.113Z" fill="#C5E9DA" stroke="#36B37E" stroke-width="0.633632" stroke-miterlimit="10"/>
<path d="M-56.7443 341.567L15.3431 368.415L0.864262 373.529L-35.1539 381.865L-56.7443 341.567Z" fill="white" stroke="#36B37E" stroke-width="0.633632" stroke-miterlimit="10" stroke-linejoin="round"/>
<path d="M15.3431 368.416L47.6264 325.612L26.4964 370.205L15.3431 368.416Z" fill="white" stroke="#36B37E" stroke-width="0.633632" stroke-miterlimit="10" stroke-linejoin="round"/>
<path d="M-14.7914 357.217L0.0967398 340.494L2.09206 341.568L-0.0567446 362.688L-14.7914 357.217Z" fill="#36B37E"/>
<path d="M2.09206 341.567L20.9709 360.949L15.343 368.415L-0.0567474 362.688L2.09206 341.567Z" fill="white" stroke="#36B37E" stroke-width="0.633632" stroke-miterlimit="10" stroke-linejoin="round"/>
<path d="M26.4964 370.205L0.864197 373.529L15.3431 368.415L26.4964 370.205Z" fill="white" stroke="#36B37E" stroke-width="0.633632" stroke-miterlimit="10" stroke-linejoin="round"/>
<mask id="mask0_1_468" style="mask-type:alpha" maskUnits="userSpaceOnUse" x="-58" y="341" width="74" height="41">
<path d="M-56.8336 341.759L15.2077 368.309L0.941376 373.223L-35.0768 381.558L-56.8336 341.759Z" fill="white" stroke="#36B37E" stroke-width="0.633632" stroke-miterlimit="10" stroke-linejoin="round"/>
</mask>
<g mask="url(#mask0_1_468)">
<path d="M-13.4611 369.489L-21.2889 369.745L-24.9214 363.455L-32.4423 363.762L-28.9121 370.001L-36.3306 370.205L-32.9027 376.496L-25.3307 376.342L-17.6052 376.138L-13.8192 382.734L-5.73563 382.632L-1.74498 389.383H6.64561L2.55264 382.53L-1.48917 375.831L-9.67511 375.984L-13.4611 369.489Z" fill="#C5E9DA"/>
<path d="M2.75744 368.927L-5.47966 369.234L-1.48902 375.831L6.85041 375.626L15.4457 375.421L11.1992 368.671L7.05506 362.074L-1.23321 362.432L2.75744 368.927Z" fill="#36B37E"/>
<path d="M-0.977467 349.238L-9.00992 349.75L-5.17276 355.989L3.01318 355.58L-0.977467 349.238Z" fill="#36B37E"/>
<path d="M15.5991 361.665L11.3526 355.119L3.01319 355.579L7.05499 362.074L15.5991 361.665Z" fill="#36B37E"/>
</g>
</g>
</g>
<mask id="mask1_1_468" style="mask-type:alpha" maskUnits="userSpaceOnUse" x="307" y="-13" width="68" height="127">
<rect x="307" y="-13" width="68" height="127" fill="#C4C4C4"/>
</mask>
<g mask="url(#mask1_1_468)">
<path d="M378.803 93.0771L422.808 108.042H359.67L351.575 107.159L347.651 104.706L361.044 93.0771H378.803Z" fill="#172B4D"/>
<path d="M373.014 65.601V63.2459C373.014 63.2459 367.863 53.0403 367.127 52.9422C366.391 52.8441 306.54 27.9189 306.54 27.9189L329.352 72.3229L338.379 81.9397L373.014 65.601Z" fill="white" stroke="#36B37E" stroke-width="0.598795" stroke-miterlimit="10"/>
<mask id="mask2_1_468" style="mask-type:alpha" maskUnits="userSpaceOnUse" x="306" y="27" width="68" height="56">
<path d="M373.197 65.8676V63.5125C373.197 63.5125 368.046 53.3069 367.31 53.2088C366.574 53.1107 306.723 28.1855 306.723 28.1855L329.535 72.5895L338.562 82.2063L373.197 65.8676Z" fill="white" stroke="#36B37E" stroke-width="0.598795" stroke-miterlimit="10"/>
</mask>
<g mask="url(#mask2_1_468)">
<path d="M348.043 54.0712L340.537 54.3165L337.103 48.2324L329.891 48.5759L333.276 54.5128L326.114 54.7581L329.45 60.7931L336.661 60.6459L344.118 60.4496L347.749 66.73L355.451 66.6809L359.277 73.1575H367.372L363.398 66.5828L359.523 60.1062L351.722 60.3025L348.043 54.0712Z" fill="#C5E9DA"/>
<path d="M344.462 47.9371L340.929 41.9512L333.669 42.3437L337.103 48.2315L344.462 47.9371Z" fill="#36B37E"/>
<path d="M355.745 53.7769L352.017 47.5947L344.462 47.9382L348.043 54.0713L355.745 53.7769Z" fill="#36B37E"/>
<path d="M359.768 47.2503L355.99 41.1172L348.386 41.5097L352.017 47.5938L359.768 47.2503Z" fill="#36B37E"/>
<path d="M363.643 53.531L355.745 53.7764L359.523 60.1058L367.568 59.9586L375.81 59.7623L371.738 53.2857L367.764 46.9072L359.768 47.2507L363.643 53.531Z" fill="#36B37E"/>
<path d="M322.876 48.8703L329.891 48.5759L326.604 42.6881L333.669 42.3446L330.333 36.5059L323.367 36.9474L316.547 37.389L319.687 43.0806L312.917 43.424L306.343 43.7675L309.336 49.4591L316.008 49.1647L319.148 55.0034L326.114 54.7581L322.876 48.8703Z" fill="#172B4D"/>
<path d="M312.377 55.1992L315.468 61.087L322.385 60.9398L319.148 55.0029L312.377 55.1992Z" fill="#36B37E"/>
<path d="M306.932 32.2856L309.876 37.8299L316.547 37.3883L313.457 31.7949L306.932 32.2856Z" fill="#36B37E"/>
<path d="M340.929 41.9516L348.386 41.51L344.805 35.5731L341.322 29.7344L334.11 30.2741L327.046 30.8138L330.333 36.5054L337.495 36.0638L340.929 41.9516Z" fill="#36B37E"/>
<path d="M360.013 34.5918L352.311 35.0824L355.99 41.1175L363.84 40.7249L360.013 34.5918Z" fill="#36B37E"/>
<path d="M375.908 46.5635L371.885 40.2832L363.84 40.7248L367.764 46.907L375.908 46.5635Z" fill="#36B37E"/>
<path d="M322.385 60.9392L325.672 67.0233L332.835 66.9251L329.45 60.792L322.385 60.9392Z" fill="#36B37E"/>
</g>
<path d="M359.67 64.0303L332.197 69.9181L331.511 71.7335L337.643 80.1236L359.67 64.0303Z" fill="#172B4D"/>
<path d="M383.12 71.5377L377.576 66.8274L368.991 60.3018L347.258 69.0354L346.277 74.2853L351.575 81.7923L383.12 71.5377Z" fill="white" stroke="#36B37E" stroke-width="0.598795" stroke-miterlimit="10"/>
<path d="M371.984 75.1189L388.026 69.918L378.803 93.0767L365.557 93.9108L371.984 75.1189Z" fill="white" stroke="#36B37E" stroke-width="0.598795" stroke-miterlimit="10"/>
<path d="M354.764 80.6635L351.575 81.792L350.104 102.743L351.575 107.159L365.557 93.9111L371.984 75.1191L354.764 80.6635Z" fill="white" stroke="#36B37E" stroke-width="0.598795" stroke-miterlimit="10"/>
<path d="M397.69 66.8271L425.408 81.792L354.764 80.6635L397.69 66.8271Z" fill="#C5E9DA" stroke="#36B37E" stroke-width="0.598795" stroke-miterlimit="10"/>
<path d="M351.575 81.7922V78.3576L329.352 47.79L326.408 52.4512L347.651 104.706L350.104 102.743L351.575 81.7922Z" fill="white" stroke="#36B37E" stroke-width="0.598795" stroke-miterlimit="10"/>
<path d="M329.352 47.7898L326.408 52.4509L316.499 61.6752L324.348 45.8271L329.352 47.7898Z" fill="white" stroke="#36B37E" stroke-width="0.598795" stroke-miterlimit="10"/>
<path d="M382.335 84.1477L354.764 80.6641L383.561 81.1547L382.335 84.1477Z" fill="#172B4D"/>
<path d="M357.757 79.731L348.141 71.7334L347.749 73.1072L351.575 78.3572V81.7918L357.757 79.731Z" fill="#172B4D"/>
<path d="M345.59 99.7009L343.334 102.498L340.39 99.7009L325.035 53.7759L326.409 52.4512L345.59 99.7009Z" fill="#C5E9DA" stroke="#36B37E" stroke-width="0.598795" stroke-miterlimit="10"/>
</g>
<defs>
<clipPath id="clip0_1_468">
<rect width="375" height="6715" fill="white" transform="translate(0 -3943)"/>
</clipPath>
<clipPath id="clip1_1_468">
<rect width="127.445" height="64.3839" fill="white" transform="translate(-57 325)"/>
</clipPath>
</defs>
</svg>
